<svg xmlns="http://www.w3.org/2000/svg" width="1030.236" height="1235.993" viewBox="0 0 965.846 1158.744" fill="white">
	<path d="M13.705 710.541c-41.273.928-56.938-30.799-56.938-57.517l.01-322.961c0-35.96 27.836-55.65 56.47-55.83L101 273.84C235.96 84.345 522.72 43.51 702.128 243.3l.1-23.81c.076-28.283 25.185-49.906 53.185-49.559l67.931.01c25.847-.467 53.023 21.822 52.644 48.705l.03 551.88c0 28.393-28.086 48.073-49.206 48.232l-74.423.02c-29.207-.182-49.968-25.663-50.2-51.834l-.01-25.1c-153.524 177.29-443.677 184.566-601.962-31.394m-87.883-14.497 95.583.02c137.23 201.817 437.908 230.811 608.557 4.24l.12 66.325c0 23.204 16.56 37.329 36.87 37.372l73.288-.03c22.933-.454 35.071-21.523 35.071-34.462l-.02-548.462c-.14-17.983-16.097-36.503-36.026-36.156l-73.07.11c-19.424.003-35.881 14.763-35.881 37.194l-.332 62.877c-204.01-263.232-507.181-156.342-608.21 4.33h-97.81c-22.11.71-38.9 15.623-38.9 40.367v324.21c.173 29.678 19.39 42.065 40.76 42.065z" transform="matrix(0 1.2297 -1.2297 0 1088.624 67.337)"/>
	<g>
		<path d="M260.004 276.142h5.027v25.221h-5.027zM305.004 276.142h5.027v25.221h-5.027z" transform="matrix(4.29842 0 0 -4.29842 -835.864 2281.093)"/>
		<path d="M0 0c.032 1.902-4.741 5.225-8.894 6.904-4.158 1.676-8.281 2.036-11.193 1.215 1.524-2.612 4.739-5.22 8.896-6.898C-7.037-.462-1.296-1.389 0 0m36.586-31.103c-1.254 1.555-7.35 1.003-11.832-.45-4.48-1.456-8.046-3.959-9.834-6.588 2.988-1.077 7.349-1.003 11.826.454 4.484 1.454 9.738 4.592 9.84 6.584m-24.298 15.98c-.499 1.872-6.112 3.79-10.662 4.27-4.549.476-8.696-.332-11.318-1.957 2.224-2.138 6.117-3.79 10.663-4.27 4.548-.477 10.442.23 11.317 1.958m15.915-11.573c-1.014 1.693-7.064 1.995-11.66 1.184-4.597-.812-8.439-2.77-10.55-5.098 2.784-1.475 7.064-2 11.657-1.188 4.595.808 10.178 3.16 10.553 5.102M8.792-18.617c-4.617-.158-8.65-1.547-11.046-3.545 2.525-1.82 6.65-2.93 11.268-2.768 4.612.167 10.412 1.696 11.045 3.55-.761 1.802-6.655 2.93-11.267 2.763M5.749-7.965C5.52-6.059.277-3.403-4.115-2.31c-4.392 1.095-8.573.878-11.368-.354 1.892-2.4 5.478-4.558 9.871-5.655 4.391-1.095 10.262-1.216 11.361.354M-4.823 8.927c.295 1.854-3.93 5.772-7.77 7.989-3.84 2.218-7.832 3.144-10.8 2.737 1.133-2.775 3.926-5.773 7.768-7.991 3.84-2.217 9.345-3.92 10.802-2.735m-7.991 38.356c1.187 1.365-.26 6.704-2.26 10.466-1.996 3.763-4.783 6.55-7.404 7.73-.49-2.835.26-6.7 2.26-10.466 1.997-3.762 5.617-7.949 7.404-7.73m.357 11.448c1.35 1.17.669 6.605-.776 10.571-1.442 3.962-3.785 7.075-6.195 8.594-.868-2.713-.67-6.605.773-10.569 1.44-3.966 4.41-8.568 6.198-8.596m2.283 10.33c1.482.963 1.565 6.382.697 10.467-.866 4.087-2.738 7.46-4.89 9.282-1.225-2.538-1.563-6.385-.695-10.474.864-4.08 3.141-9.005 4.888-9.276m-.7-41.875c.777 1.668-2.144 6.498-5.161 9.627-3.02 3.128-6.534 5.076-9.44 5.496.318-2.918 2.142-6.5 5.164-9.629 3.019-3.13 7.74-6.214 9.438-5.494m-1.45 10.024c.999 1.526-1.201 6.668-3.728 10.151-2.53 3.483-5.707 5.876-8.5 6.688-.088-2.902 1.208-6.666 3.735-10.153 2.53-3.479 6.736-7.16 8.493-6.686m166.19-30.305c-4.153-1.68-8.928-5.002-8.892-6.904 1.293-1.389 7.035-.462 11.188 1.22 4.157 1.68 7.375 4.287 8.898 6.9-2.912.82-7.04.46-11.194-1.216M149.09-2.31c-4.393-1.093-9.635-3.749-9.864-5.655 1.096-1.57 6.969-1.449 11.363-.355 4.39 1.098 7.976 3.255 9.867 5.656-2.794 1.232-6.973 1.45-11.366.354m-5.741-8.544c-4.55-.479-10.165-2.397-10.665-4.269.878-1.727 6.77-2.434 11.32-1.958 4.543.482 8.433 2.132 10.663 4.27-2.625 1.625-6.772 2.434-11.318 1.957m14.216 27.77c-3.84-2.217-8.063-6.135-7.768-7.989 1.458-1.184 6.961.517 10.803 2.735 3.842 2.218 6.635 5.216 7.767 7.99-2.967.408-6.96-.518-10.802-2.736m-4.222 1.064c1.589-.96 6.75 1.463 10.213 4.172 3.459 2.703 5.785 6.028 6.515 8.9-2.964-.007-6.752-1.463-10.213-4.169-3.463-2.706-7.061-7.128-6.515-8.903M135.96-24.93c4.618-.16 8.736.947 11.266 2.768-2.396 1.998-6.43 3.386-11.043 3.544-4.62.167-10.51-.96-11.27-2.762.635-1.855 6.43-3.383 11.047-3.55m-89.904-9.5c-1.471 1.375-7.486-.03-11.766-2.114-4.28-2.087-7.495-5.093-8.914-7.972 3.146-.655 7.49.03 11.77 2.116 4.275 2.088 9.088 5.965 8.91 7.97m73.543-10.086c-1.421 2.88-4.635 5.885-8.914 7.972-4.28 2.083-10.295 3.49-11.77 2.113-.18-2.004 4.639-5.88 8.913-7.969 4.279-2.087 8.623-2.77 11.77-2.116m8.833 19.004c-4.598.812-10.647.51-11.663-1.184.378-1.94 5.959-4.294 10.552-5.1 4.594-.813 8.875-.288 11.66 1.186-2.112 2.33-5.958 4.286-10.55 5.098m-8.211-6.04c-4.482 1.452-10.576 2.004-11.832.45.1-1.993 5.357-5.13 9.84-6.585 4.479-1.457 8.836-1.53 11.828-.454-1.788 2.63-5.356 5.132-9.836 6.588m-138.8 53.705c3.46-2.709 8.62-5.132 10.21-4.172.55 1.776-3.051 6.197-6.513 8.903-3.46 2.706-7.247 4.163-10.211 4.168.729-2.87 3.053-6.196 6.514-8.899M151.566 78.8c1.673.513 3.226 5.648 3.513 9.772.286 4.126-.575 7.847-2.128 10.169-1.857-2.083-3.226-5.652-3.51-9.773-.292-4.123.538-9.432 2.125-10.168m-10.882 19.175c1.452.94 1.525 6.253.672 10.259-.851 4.002-2.686 7.308-4.796 9.095-1.203-2.49-1.532-6.256-.676-10.257.849-4.005 3.084-8.83 4.8-9.097m-7.497 7.945c1.296 1.124.639 6.345-.75 10.15-1.385 3.812-3.642 6.804-5.954 8.26-.833-2.604-.64-6.344.749-10.15 1.386-3.812 4.239-8.23 5.955-8.26m13.603-17.316c1.57.73 2.388 5.979 2.095 10.065-.286 4.081-1.645 7.612-3.486 9.671-1.537-2.296-2.381-5.98-2.096-10.063.287-4.085 1.828-9.17 3.487-9.673m9.055-61.419c1.695-.72 6.422 2.364 9.44 5.494 3.017 3.13 4.845 6.711 5.163 9.63-2.903-.42-6.421-2.369-9.441-5.497-3.016-3.129-5.938-7.959-5.162-9.627m5.178 20.175c-2.525-3.483-4.728-8.625-3.732-10.15 1.762-.475 5.968 3.206 8.498 6.684 2.526 3.487 3.82 7.251 3.732 10.153-2.79-.81-5.967-3.205-8.498-6.687m-3.591 11.371c1.787.028 4.75 4.63 6.196 8.596 1.442 3.964 1.642 7.856.773 10.57-2.408-1.52-4.751-4.633-6.198-8.595-1.44-3.966-2.122-9.4-.771-10.57m-2.284 10.328c1.748.271 4.023 5.195 4.887 9.276.866 4.09.53 7.936-.696 10.474-2.153-1.822-4.022-5.195-4.89-9.282-.867-4.085-.786-9.504.7-10.468m4.899-11.311c-2-3.762-3.446-9.101-2.262-10.466 1.787-.219 5.404 3.968 7.405 7.731 2 3.765 2.753 7.631 2.26 10.465-2.62-1.18-5.406-3.967-7.403-7.73M17.74 114.179c1.39 3.808 1.585 7.547.751 10.15-2.313-1.455-4.568-4.447-5.958-8.258-1.385-3.806-2.045-9.027-.748-10.151 1.714.03 4.572 4.448 5.955 8.26M-6.595 78.8c1.59.736 2.413 6.045 2.127 10.168-.287 4.12-1.652 7.69-3.512 9.773-1.553-2.322-2.412-6.043-2.126-10.17.285-4.123 1.841-9.258 3.511-9.771M4.292 97.975c1.715.268 3.949 5.092 4.799 9.097.853 4 .524 7.767-.676 10.257-2.11-1.787-3.946-5.093-4.801-9.095-.85-4.006-.776-9.32.678-10.26m-6.108-9.37c1.658.503 3.197 5.589 3.486 9.674.285 4.082-.559 7.766-2.096 10.062-1.846-2.058-3.2-5.59-3.487-9.671-.29-4.086.526-9.335 2.097-10.064m74.304-122.97c-.118.019-.24.035-.358.054l.094-4.09.264.05c.09-.017.176-.035.266-.051l.092 4.092c-.118-.02-.24-.036-.358-.055M5.705 47.137c.001.322-1.804.413-1.805-.1-.282-.016-.275-.482 0-.5.001-.245 1.806-.342 1.805-.1m66.053-66.549.05-1.685c.013-.512 1.342-.538 1.36 0l.05 1.685m66.05 66.548c-.003-.252 1.799-.285 1.806.101.07.14.144.374 0 .5.002.307-1.809.318-1.806.1m-67.214 68.239c-.022-.557-.046-1.118-.071-1.684-.02-.405 1.02-.381 1.008 0-.026.566-.05 1.127-.073 1.684-.013.237-.855.228-.864 0m.937-143.664c.01.373.47 1.123.028 1.122.002.341-1.067.338-1.062 0-.295.005-.29-1.12.028-1.122.015-.33.995-.325 1.006 0m-.279 149.034c.218 0 .229 1.123-.04 1.124-.007.122-.37.116-.373 0-.246-.001-.26-1.121-.04-1.124m.66-5.37a1016.63 1016.63 0 0 0-.207 5.37c-.009.217-.45.212-.453 0a919.562 919.562 0 0 0-.206-5.37m-.245-137.173c.053-1.783.103-3.583.15-5.37.01-.413 1.054-.435 1.061 0 .046 1.788.095 3.587.15 5.37M72.67 121.87c-.064 1.82-.126 3.561-.187 5.192-.06-1.63-.12-3.372-.184-5.192-.007-.172.375-.178.37 0m.177-156.18c.045 1.944.093 3.966.145 6.021.007.464-1.017.49-1.006 0 .05-2.055.099-4.078.144-6.023.01-.354.706-.307.717.001m36.268 108.506c5.18-6.984 8.417-15.508 8.963-24.76.018-.314.047-.627.06-.943-7.144.621-14.287 1.242-19.876 2.484-8.384 1.864-15.215 5.59-18.324 13.045-2.793 6.832-4.656 17.39-5.59 28.57 14.295-.558 26.81-7.666 34.767-18.396m8.964-30.057c-.546-9.246-3.779-17.76-8.95-24.744C101.172 8.654 88.653 1.54 74.352.982c.931 11.18 2.794 21.738 5.587 28.57 3.11 7.454 9.94 11.18 18.013 13.043 5.9 1.245 13.044 1.864 20.185 2.485-.01-.317-.04-.627-.058-.942m-82.22-24.76c-5.179 6.985-8.417 15.506-8.963 24.76-.018.315-.047.625-.059.942 7.143-.62 14.286-1.24 19.875-2.485 8.384-1.863 15.215-5.589 18.324-13.043 2.793-6.832 4.656-17.39 5.59-28.57-14.295.557-26.81 7.664-34.767 18.395m-8.964 30.056c.546 9.248 3.78 17.762 8.951 24.744C43.802 84.92 56.321 92.033 70.622 92.59c-.93-11.18-2.794-21.737-5.587-28.569-3.108-7.455-9.94-11.18-18.013-13.045-5.9-1.242-13.044-1.863-20.185-2.484.011.316.04.63.058.941m25.591 43.145c-.184-.08-.367-.164-.55-.246a52.977 52.977 0 0 1-2.687-1.309c-.083-.045-.166-.088-.249-.13-14.9-7.895-25.343-23.145-26.423-40.856-.03-.41-.068-.819-.089-1.23-5.2-.626-10.258-1.11-14.528-1.548l-2.255-.122c-.171-.158-.194-.512 0-.7l2.25-.123c4.27-.439 9.328-.924 14.532-1.549.022-.443.063-.882.096-1.324.024-.322.04-.648.07-.97.004-.059.012-.118.017-.176 1.477-17.143 11.735-31.842 26.234-39.563.167-.09.334-.178.502-.264a44.58 44.58 0 0 1 1.216-.613c.49-.238.982-.47 1.48-.69.104-.048.207-.095.311-.14a49.226 49.226 0 0 1 18.52-4.08c.353-4.1.616-10.378.825-17.058.012-.498 1.442-.525 1.461 0 .208 6.68.471 12.958.823 17.058A49.234 49.234 0 0 1 92.49.995l.548.245c.414.185.824.38 1.232.574.49.24.977.483 1.456.736l.25.131c14.9 7.893 25.342 23.145 26.422 40.854.031.41.07.818.09 1.23 5.2.625 10.257 1.11 14.527 1.55.783.041 1.53.082 2.254.121.604.032.58.67 0 .7l-2.249.123c-4.269.438-9.328.922-14.532 1.547-.02.444-.062.883-.096 1.325-.023.324-.039.648-.069.97-.005.06-.013.117-.018.176C120.827 68.42 110.57 83.12 96.07 90.841l-.502.264a49.71 49.71 0 0 1-2.696 1.303l-.31.14a49.203 49.203 0 0 1-18.52 4.08c-.495 5.755-.815 11.594-1.052 17.064-.006.398-1.005.416-1.008 0-.237-5.47-.555-11.309-1.05-17.065a49.244 49.244 0 0 1-18.446-4.049m88.588-46.04c.555.031 1.094.063 1.6.095l-1.287.154c.443.051.876.102 1.286.154-.505.032-1.044.063-1.599.095-.414.005.007-.166.007-.249 0-.084-.568-.282-.007-.25M72.224-38.4c.098-4.23.182-7.815.267-10.09.083 2.275.167 5.86.263 10.089.003.275-.533.265-.53 0M3.9 47.037c-.555-.032-1.094-.063-1.599-.095.411-.052.843-.103 1.286-.154l-1.286-.154c.505-.032 1.044-.064 1.6-.096-.002.084-.008.166-.008.25 0 .083.006.166.007.25M145.857-64.646c0-.44.107-1.047.323-1.82l-8.057 15.55h-4.406v-25.22h4.9v14.053c0 .44-.108 1.046-.323 1.82l8.057-15.873h4.405v25.22h-4.899zm-30.296-.242h7.563v3.271h-7.563v7.366h8.788v3.336h-13.816v-25.22h13.945v3.335h-8.917zM100.79-53.09v2.176H86.136v-3.4h8.659l-9.411-19.807v-2.014h15.449v3.4h-9.434Zm-56.716-1.16h5.543v-21.885h5.007v21.885h5.544v3.336H44.074zM7.69-50.914H-2.796c-1.992 0-2.988-.773-2.988-2.32V-73.83c0-1.537.996-2.305 2.988-2.305H7.69c2.048 0 3.073.768 3.073 2.305v6.236H5.755v-5.3h-6.51v18.74h6.51v-4.98h5.007v5.9c0 1.547-1.025 2.32-3.073 2.32m98.206 176.34-.397 32.639c2.935-.157 5.868-.34 8.795-.551l.1-13.203a138.176 138.176 0 0 1-6.816 1.525l.04-3.445a310.601 310.601 0 0 0 7.761-21.682 78.49 78.49 0 0 0 7.002-4.611c-2.438 8.859-4.967 16.728-7.543 23.849 2.274-.714 3.753-1.11 4.453-1.068 1.303.082 1.953 1.1 1.951 3.045l-.022 16.703c-.002 2.838-1.408 4.248-4.218 4.233-6.183.004-12.368.007-18.552.009l.456-34.904a80.68 80.68 0 0 0 6.99-2.54m-24.04 30.196a4176.29 4176.29 0 0 0 3.55-14.48c-2.31.228-4.625.392-6.94.498a1681.65 1681.65 0 0 1 3.39 13.982M69.06 131.857c2.354.09 4.71.086 7.065-.006.473 1.944.944 3.885 1.414 5.831 2.971-.133 5.941-.385 8.903-.758.495-2.088.991-4.192 1.487-6.315a86.146 86.146 0 0 0 7.031-1.517c-3.17 12.072-6.326 23.172-9.418 33.824h-7.35c-2.973-10.367-6.018-20.537-9.132-30.979zm-13.079-1.44a89.35 89.35 0 0 0 7.095 1.02l.182 27.28c2.577.035 5.154.056 7.732.062l.005 4.096c-7.459 0-14.918-.002-22.378-.004l-.059-4.53c2.572.098 5.147.177 7.722.24l-.299-28.163m-29.36-11.54a78.447 78.447 0 0 0 13.797 7.09c2.818 1.114 4.256 2.62 4.283 4.778l.11 8.434c.016 1.189-.48 2.04-1.488 2.562-4.63 2.407-9.223 4.996-13.824 8.149l.052 7.648c2.837.209 5.678.39 8.523.545l-.084-7.162c2.324.318 4.652.598 6.985.84.036 2.637.07 5.269.104 7.904.028 2.125-1.372 3.192-4.2 3.2-4.692-.001-9.382-.005-14.072-.008-2.81.017-4.214-1.418-4.212-4.305v-10.401c0-1.513.5-2.634 1.494-3.314 4.577-3.072 9.14-5.52 13.74-7.744l-.086-7.47a83.328 83.328 0 0 1-8.4-3.753c.017 2.879.036 5.756.054 8.633a91.613 91.613 0 0 1-6.802-2.99V120.37c.004-2.883 1.327-3.267 4.025-1.492m77.212 1.7c22.753-9.413 48.368-34.689 48.368-73.134 0-46.635-33.039-75.138-75.138-81.119a253.79 253.79 0 0 1-4.215-.637c-.718.005-.62-4.087-.093-4.09 6.852-1.28 13.367-2.698 18.33-4.396 0 0 .887-.033 1.512 1.805.625 1.836-.064 2.187-.064 2.187-2.75.897-5.945 1.713-9.412 2.467 42.087 9.123 71.667 37.492 71.667 83.783 0 39.127-27.77 64.14-50.955 73.133M67.912-33.674C25.815-27.694-7.223.81-7.223 47.446c0 38.444 25.614 63.72 48.367 73.132C17.96 111.584-9.813 86.572-9.813 47.445c0-46.29 29.583-74.66 71.667-83.783-3.465-.754-6.659-1.57-9.41-2.467 0 0-.689-.35-.065-2.187.625-1.838 1.514-1.805 1.514-1.805 4.962 1.7 11.476 3.115 18.331 4.395.527.005.615 4.087-.094 4.09-1.392.221-2.79.437-4.218.638m5.307 13.562c-.584-.008-.569-1.696-.051-1.685 37.425.368 67.772 30.85 67.906 68.334-.576-.033-1.18-.066-1.805-.1-.19-36.493-29.675-66.154-66.05-66.55m66.05 67.25a648.24 648.24 0 0 0 1.806-.101c-.135 37.567-30.616 68.106-68.157 68.34-.86.006-.932-1.68.073-1.683 36.48-.273 66.09-29.987 66.278-66.556m-133.564-.7c-.624.034-1.229.067-1.805.1.135-37.485 30.484-67.968 67.909-68.334.558-.015.722 1.678-.051 1.684-36.376.394-65.864 30.055-66.053 66.55m66.277 67.255c1.004 0 .934 1.686.071 1.684-37.538-.235-68.018-30.774-68.153-68.34l1.805.101c.19 36.568 29.798 66.282 66.277 66.555m74.382-66.905c0-40.606-32.854-73.664-73.345-73.953-.473-.004-.452-1.125-.028-1.122 41.167.273 74.575 33.84 74.575 75.075 0 41.34-33.58 74.982-74.895 75.083-.371.001-.413-1.122.041-1.124 40.632-.123 73.652-33.25 73.652-73.959m-147.757 0c0 40.707 33.02 73.835 73.652 73.96.452-.002.41 1.118.04 1.123-41.31-.102-74.89-33.743-74.89-75.083 0-41.236 33.41-74.804 74.576-75.075.526-.007.534 1.123-.028 1.122-40.494.287-73.35 33.346-73.35 73.953" transform="matrix(4.29842 0 0 -4.29842 171.692 766.86)"/>
	</g>
</svg>
