<svg xmlns="http://www.w3.org/2000/svg" width="22" height="20" fill="none"><circle cx="10" cy="10.5" r="8.75" stroke="#A4A7AD" stroke-width="1.5"/><circle cx="20" cy="18.5" r="1.5" fill="#A4A7AD"/><path fill="#FB542B" fill-rule="evenodd" d="m15.396 9.04-.393-1.046.274-.6a.203.203 0 0 0-.043-.229l-.742-.736a1.216 1.216 0 0 0-1.246-.284l-.208.07L11.954 5H7.966l-1.07 1.23-.202-.07c-.44-.152-.93-.04-1.257.287l-.756.75a.161.161 0 0 0-.034.182l.286.624-.391 1.045.253.943 1.152 4.295c.132.496.438.93.863 1.226 0 0 1.4.968 2.78 1.846a.704.704 0 0 0 .384.132.702.702 0 0 0 .385-.132c1.55-.996 2.777-1.85 2.777-1.85.425-.297.73-.731.862-1.227l1.147-4.297.251-.944z" clip-rule="evenodd"/><path fill="url(#a)" fill-rule="evenodd" d="m14.17 9.248-.018.056-.028.1a8.478 8.478 0 0 1-.358.398l-1.107 1.154c-.12.126-.189.283-.12.442l.15.36c.068.16.075.422.009.598a1.067 1.067 0 0 1-.333.458l-.116.092a.563.563 0 0 1-.537.064l-.51-.238a2.64 2.64 0 0 1-.526-.344l-.483-.425a.216.216 0 0 1-.012-.315l1.176-.778c.145-.096.222-.274.14-.426l-.418-.746c-.083-.152-.116-.354-.074-.449.042-.095.212-.222.376-.283l1.365-.497c.164-.061.155-.124-.02-.14l-.872-.064a1.217 1.217 0 0 0-.473.055l-.66.16c-.17.047-.205.223-.173.393l.272 1.447c.032.17.048.34.035.379-.013.04-.164.102-.335.14l-.226.05c-.172.039-.453.04-.625.005l-.273-.057c-.172-.036-.323-.098-.336-.137-.013-.04.003-.21.034-.38l.271-1.447c.032-.17-.004-.346-.174-.392l-.66-.159a1.22 1.22 0 0 0-.473-.055l-.872.065c-.175.016-.184.079-.02.14l1.366.495c.165.061.334.189.376.284.043.094.01.296-.073.449l-.417.745c-.082.152-.005.33.14.427l1.177.776a.216.216 0 0 1-.011.315l-.482.426c-.13.116-.368.27-.527.345l-.51.238a.563.563 0 0 1-.536-.063l-.116-.092a1.078 1.078 0 0 1-.339-.472.901.901 0 0 1 .014-.583l.15-.361c.068-.159 0-.316-.121-.442L6.148 9.806a8.55 8.55 0 0 1-.358-.397l-.029-.1-.018-.056c-.002-.065.022-.27.049-.326.026-.055.129-.218.227-.36l.238-.344c.098-.143.269-.37.378-.505l.348-.427c.11-.135.203-.244.217-.243l.316.057.526.1.424.078c.06.012.246-.023.414-.076l.379-.12c.167-.053.42-.123.564-.156l.132.002.133-.002c.143.032.397.102.564.155l.38.12c.167.053.353.087.413.076l.35-.066.074-.014.526-.1a7.1 7.1 0 0 1 .325-.058c.005 0 .098.109.208.244l.348.426c.11.135.28.362.38.504l.237.344c.099.142.253.402.263.461.01.059.016.16.014.225zm-4.143 3.444c.016 0 .161.054.324.12l.15.061c.163.066.425.184.582.262l.444.221c.157.078.169.224.026.324l-.38.266c-.143.1-.368.274-.5.387l-.479.41a.375.375 0 0 1-.473 0 65.347 65.347 0 0 0-.474-.405 7.728 7.728 0 0 0-.502-.384l-.378-.261c-.144-.1-.133-.246.023-.326l.447-.228a8.86 8.86 0 0 1 .58-.265l.15-.062a3.25 3.25 0 0 1 .323-.12h.137z" clip-rule="evenodd"/><defs><linearGradient id="a" x1="9.957" x2="13.898" y1="16.674" y2="16.674" gradientUnits="userSpaceOnUse"><stop stop-color="#fff"/><stop offset="1" stop-color="#F4F4F4"/></linearGradient></defs></svg>